<?xml version="1.0" encoding="UTF-8"?>
<svg width="700pt" height="700pt" version="1.1" viewBox="0 0 700 700" xmlns="http://www.w3.org/2000/svg">
 <g>
  <path d="m227.5 385h297.5c3.668 0.007812 7.2461-1.1328 10.23-3.2695s5.2188-5.1562 6.3945-8.6289l70-210c1.7617-5.3398 0.84766-11.199-2.4492-15.75-3.2695-4.5898-8.543-7.3242-14.176-7.3516h-245c-6.2539 0-12.031 3.3359-15.156 8.75s-3.125 12.086 0 17.5 8.9023 8.75 15.156 8.75h220.68l-58.277 175h-253.92l-46.027-175h32.551c6.2539 0 12.031-3.3359 15.156-8.75s3.125-12.086 0-17.5-8.9023-8.75-15.156-8.75h-41.824l-28.176-109.38c-0.99219-3.8516-3.2656-7.25-6.4453-9.6328-3.1836-2.3867-7.082-3.6172-11.055-3.4922h-52.5c-6.2539 0-12.031 3.3359-15.156 8.75s-3.125 12.086 0 17.5 8.9023 8.75 15.156 8.75h39.023l78.402 297.5c-18.758 0.90625-35.605 11.75-44.199 28.449-8.5938 16.695-7.625 36.707 2.5391 52.5 10.164 15.789 27.977 24.957 46.734 24.051h13.648c-8.7109 9.582-13.57 22.051-13.648 35 0 18.758 10.008 36.09 26.25 45.465 16.242 9.3789 36.258 9.3789 52.5 0 16.242-9.375 26.25-26.707 26.25-45.465-0.078125-12.949-4.9375-25.418-13.648-35h132.3-0.003906c-8.7109 9.582-13.57 22.051-13.648 35 0 18.758 10.008 36.09 26.25 45.465 16.242 9.3789 36.258 9.3789 52.5 0 16.242-9.375 26.25-26.707 26.25-45.465-0.078125-12.949-4.9375-25.418-13.648-35h13.648c6.2539 0 12.031-3.3359 15.156-8.75s3.125-12.086 0-17.5-8.9023-8.75-15.156-8.75h-315c-6.2539 0-12.031-3.3359-15.156-8.75s-3.125-12.086 0-17.5 8.9023-8.75 15.156-8.75zm52.5 122.5c-4.6406 0-9.0938-1.8438-12.375-5.125s-5.125-7.7344-5.125-12.375 1.8438-9.0938 5.125-12.375 7.7344-5.125 12.375-5.125 9.0938 1.8438 12.375 5.125 5.125 7.7344 5.125 12.375-1.8438 9.0938-5.125 12.375-7.7344 5.125-12.375 5.125zm210 0c-4.6406 0-9.0938-1.8438-12.375-5.125s-5.125-7.7344-5.125-12.375 1.8438-9.0938 5.125-12.375 7.7344-5.125 12.375-5.125 9.0938 1.8438 12.375 5.125 5.125 7.7344 5.125 12.375-1.8438 9.0938-5.125 12.375-7.7344 5.125-12.375 5.125z"/>
  <path d="m315 157.5c0 9.6641-7.8359 17.5-17.5 17.5s-17.5-7.8359-17.5-17.5 7.8359-17.5 17.5-17.5 17.5 7.8359 17.5 17.5"/>
 </g>
</svg>
